<!DOCTYPE svg PUBLIC "-//W3C//DTD SVG 1.1//EN" "http://www.w3.org/Graphics/SVG/1.1/DTD/svg11.dtd">
<!-- Uploaded to: SVG Repo, www.svgrepo.com, Transformed by: SVG Repo Mixer Tools -->
<svg width="64px" height="64px" viewBox="0 0 24 24" fill="none" xmlns="http://www.w3.org/2000/svg" transform="rotate(0)">
<g id="SVGRepo_bgCarrier" stroke-width="0"/>
<g id="SVGRepo_tracerCarrier" stroke-linecap="round" stroke-linejoin="round" stroke="#a48484" stroke-width="4.32"> <path d="M21 7.5V6C21 4.34315 19.6569 3 18 3H6C4.34315 3 3 4.34315 3 6V7.5M21 16.5V18C21 19.6569 19.6569 21 18 21H6C4.34315 21 3 19.6569 3 18V16.5" stroke="#000000" stroke-width="2" stroke-linecap="round" stroke-linejoin="round"/> <path d="M3 12H7L10 8L13 16L16 12H21" stroke="#000000" stroke-width="2" stroke-linecap="round" stroke-linejoin="round"/> </g>
<g id="SVGRepo_iconCarrier"> <path d="M21 7.5V6C21 4.34315 19.6569 3 18 3H6C4.34315 3 3 4.34315 3 6V7.5M21 16.5V18C21 19.6569 19.6569 21 18 21H6C4.34315 21 3 19.6569 3 18V16.5" stroke="#000000" stroke-width="2" stroke-linecap="round" stroke-linejoin="round"/> <path d="M3 12H7L10 8L13 16L16 12H21" stroke="#000000" stroke-width="2" stroke-linecap="round" stroke-linejoin="round"/> </g>
</svg>